# xmcd
#
# Track frame offsets:
#	150
#	15471
#	31287
#	51196
#	72011
#	87893
#	102912
#	118303
#	134025
#	146184
#	161032
#	177110
#	192358
#
# Disc length: 2746 seconds
#
# Revision: 0
# Processed by: cddbd v1.5.2PL0 Copyright (c) Steve Scherf et al.
# Submitted via: audiograbber 1.83.01
#
DISCID=b90ab80d
DTITLE=Sampler - Alle 13  Goed! Deel 13
DYEAR=1977
DGENRE=Pop
TTITLE0=BZN  - The Clown
TTITLE1=Luv'  - Dream, Dream
TTITLE2=Ecstasy  - Nobody But You
TTITLE3=Donna Summer  - I Remember Yesterday
TTITLE4=Teenager  - Baby Hold On
TTITLE5=Veronica Unlimited  - Right-On
TTITLE6=Santa Esmeralda - Don't Let Me Be Misunderstood
TTITLE7=Road  - Unchained Melody
TTITLE8=First Choice  - Doctor Love
TTITLE9=Danny Williams  - Dancin' Easy
TTITLE10=Player  - Baby Come Back
TTITLE11=Johnny Roman  - Buona Sera
TTITLE12=Kamahl  - Love Is A Beautiful Song
EXTD=
EXTT0=
EXTT1=
EXTT2=
EXTT3=
EXTT4=
EXTT5=
EXTT6=
EXTT7=
EXTT8=
EXTT9=
EXTT10=
EXTT11=
EXTT12=
PLAYORDER=
